<svg width="26" height="24" viewBox="0 0 26 24" fill="none" xmlns="http://www.w3.org/2000/svg">
<path fill-rule="evenodd" clip-rule="evenodd" d="M3.17072 0C1.25381 0 0 1.19259 0 2.7609C0 4.29502 1.21754 5.52381 3.09634 5.52381H3.13377C5.0878 5.52381 6.30303 4.29525 6.30303 2.7609C6.26621 1.19259 5.0878 0 3.17072 0ZM26 14.7159V24H20.4519V15.3377C20.4519 13.1617 19.6495 11.6767 17.6412 11.6767C16.1082 11.6767 15.1959 12.6775 14.7946 13.6456C14.6482 13.9917 14.6105 14.4734 14.6105 14.9579V24H9.06061C9.06061 24 9.13535 9.32897 9.06061 7.80894H14.61V10.104C14.6047 10.112 14.5986 10.1204 14.5926 10.1288L14.5926 10.1288C14.5858 10.1382 14.5791 10.1475 14.5735 10.1563H14.61V10.104C15.3473 9.00231 16.664 7.42857 19.6112 7.42857C23.2627 7.42851 26 9.74268 26 14.7159ZM5.90909 24H0.393939V7.80952H5.90909V24Z" fill="#CED72B"/>
</svg>
