<svg width="142" height="33" viewBox="0 0 142 33" fill="none" xmlns="http://www.w3.org/2000/svg">
<path fill-rule="evenodd" clip-rule="evenodd" d="M14.3894 11.369L10.0223 7.00218C9.91308 6.89301 9.96766 6.72925 10.1314 6.72925H14.1165C14.2257 6.72925 14.2803 6.67467 14.2803 6.5655V4.16376C14.2803 4.05459 14.2257 4 14.1165 4H7.78408H5.16376C5.05458 4 5 4.05459 5 4.16376V6.78384V13.1157C5 13.2249 5.05458 13.2795 5.16376 13.2795H7.6203C7.72948 13.2795 7.78408 13.2249 7.78408 13.1157V9.131C7.78408 9.02183 7.94785 8.91266 8.05703 9.02183L11.8783 12.8428C12.5334 13.4978 12.9155 14.4257 12.9155 15.3537V18.5196C12.9155 18.6288 12.9701 18.6834 13.0793 18.6834H15.5358C15.645 18.6834 15.6996 18.6288 15.6996 18.5196V14.6441C15.6996 13.3886 15.2083 12.2423 14.3894 11.369Z" fill="#CED72B"/>
<path d="M34.2601 11.2599C34.2601 13.4979 32.4586 15.2446 29.9475 15.2446H24.2156L24.161 7.60272H30.275C32.677 7.54813 34.2601 9.1311 34.2601 11.2599ZM39.6645 28.6726L32.9499 17.9739C36.0069 17.1551 38.0814 14.3167 38.0814 11.1507C38.0814 7.11145 34.806 4.05469 30.1113 4.05469H20.3943L20.4489 28.6726H24.2701V18.6835H29.074L35.2973 28.618L39.6645 28.6726Z" fill="#CED72B"/>
<path d="M49.327 13.7159C52.1111 13.7159 53.7488 15.4627 53.7488 18.1919H44.4139C44.6323 15.4081 46.5429 13.7159 49.327 13.7159ZM57.2425 19.3382C57.2425 14.0435 54.1309 10.6592 49.3816 10.6592C44.3593 10.6592 40.9202 14.371 40.9202 19.9386C40.9202 25.4517 44.1956 28.9998 49.2178 28.9998C53.2029 28.9998 56.2053 26.7618 57.0241 23.4321H53.8034C53.1483 25.0696 51.6744 25.943 49.4908 25.943C46.3246 25.943 44.3593 24.0325 44.3593 20.812H57.2425V19.2836V19.3382Z" fill="#CED72B"/>
<path d="M69.5252 25.4518H67.7783C66.1952 25.4518 65.4855 24.7968 65.4855 23.2138V14.1527H69.143V10.9867H65.4855V5.74658L61.828 6.72911V10.9867H58.498V14.1527H61.828V23.1046C61.828 27.2531 63.2473 28.6723 67.1232 28.6723H69.5798L69.5252 25.4518Z" fill="#CED72B"/>
<path d="M87.9217 17.2097C87.9217 12.9521 85.7381 10.6595 81.7531 10.6595C79.1327 10.6595 77.5497 11.5328 76.3487 13.7708V4.05469H72.6912V28.618H76.3487V19.1747C76.3487 15.8996 78.041 13.88 80.7704 13.88C82.954 13.88 84.2642 15.3538 84.2642 17.5918V28.618H87.9217V17.2097Z" fill="#CED72B"/>
<path d="M92.2891 28.6724H95.9466V10.9869H92.2891V28.6724ZM92.2891 8.20305H95.9466V4H92.2891V8.20305Z" fill="#CED72B"/>
<path d="M115.817 17.2094C115.817 12.9518 113.634 10.6592 109.649 10.6592C107.083 10.6592 105.445 11.5325 104.244 13.6614V10.9867H100.587V28.6177H104.244V19.1744C104.244 15.8993 105.936 13.8797 108.666 13.8797C110.85 13.8797 112.16 15.3535 112.16 17.5915V28.6177H115.817V17.2094Z" fill="#CED72B"/>
<path d="M136.561 28.6726L129.028 18.6289L136.125 10.987H131.266L123.951 19.3385V4.05469H120.348V28.618H124.006V24.0328L126.626 21.1944L132.194 28.618H136.561V28.6726Z" fill="#CED72B"/>
</svg>
